<svg width="64" height="64" xmlns="http://www.w3.org/2000/svg" style="vector-effect: non-scaling-stroke;" stroke="null">

 <title style="vector-effect: non-scaling-stroke;" stroke="null"/>
 <g stroke="null">
  <title stroke="null">background</title>
  <rect stroke="null" fill="none" id="canvas_background" height="66" width="66" y="-1" x="-1"/>
 </g>
 <g stroke="null">
  <title stroke="null">Layer 1</title>
  <ellipse ry="29.330474" rx="29.330472" id="svg_13" cy="31.812518" cx="31.833349" stroke-width="4.5" fill="none"/>
  <path stroke="null" fill="#ff56aa" id="svg_1" d="m54.027762,49.082248l0,0s-0.23,3.44 -3.37,3.44c-2.42,0 -4.07,-1.84 -5.61,-4.24l0,0c-1,-1.78 -3.55,-5.68 -3.55,-5.68c-1.61,-2.29 -3.53,-4.24 -6.28,-4.86a13.3,13.3 0 0 0 -9.54,1.59a1.17,1.17 0 0 0 -0.44,1.51l0.33,0.68a1.21,1.21 0 0 0 1.29,0.76a9.07,9.07 0 0 1 3.6,0.24c2,0.46 3.52,3.2 5.28,6.35a8.47,8.47 0 0 1 -3.81,0.93c-6.53,0 -11.83,-7.82 -11.83,-17.46s5.3,-17.46 11.83,-17.46s11.82,7.81 11.82,17.46a25.7,25.7 0 0 1 -0.34,4.17a3.74,3.74 0 0 0 1,3.23a28.69,28.69 0 0 1 3.06,3.81a0.92,0.92 0 0 0 1.54,0a21.3,21.3 0 0 0 3.15,-11.18c0.07,-11.6 -9.01,-20.96 -20.21,-20.96s-20.3,9.36 -20.3,20.91s9.1,20.91 20.3,20.91a19.6,19.6 0 0 0 5.85,-0.89c2.34,3.72 5.31,7.07 10,7.07c9.44,0 9.85,-10.33 9.85,-10.33l-3.62,0z" class="cls-1"/>
  <path stroke="null" fill="#09816c" id="svg_3" d="m34.501155,47.812247l0,0l0,0z" class="cls-2"/>
  <path stroke="null" fill="#09816c" id="svg_4" d="m37.981155,53.672247l0,0z" class="cls-2"/>
  <ellipse stroke="#ffc700" ry="6.293081" rx="17.946936" id="svg_5" cy="12.85476" cx="32.025642" stroke-width="4.5" fill="none"/>
  <line stroke="#ffc700" style="vector-effect: non-scaling-stroke;" stroke-linecap="null" stroke-linejoin="null" id="svg_6" y2="63.050238" x2="85.782537" y1="10.724434" x1="85.54946" stroke-width="4.5" fill="none"/>
  <line stroke="#ffc700" style="vector-effect: non-scaling-stroke;" stroke-linecap="null" stroke-linejoin="null" id="svg_7" y2="41.956763" x2="82.053299" y1="41.840224" x1="79.023297" stroke-width="4.5" fill="none"/>
 </g>
</svg>